{
 "cells": [
  {
   "cell_type": "code",
   "execution_count": 1,
   "id": "38d3da5e-0fd0-4979-ad78-6feb410ac380",
   "metadata": {
    "tags": []
   },
   "outputs": [],
   "source": [
    "import utils"
   ]
  },
  {
   "cell_type": "code",
   "execution_count": null,
   "id": "bec589cc-2443-4b7f-a8a4-b7481bcb8d96",
   "metadata": {
    "tags": []
   },
   "outputs": [],
   "source": [
    "utils.crop_out_participants(\"videos\", 'a')"
   ]
  },
  {
   "cell_type": "code",
   "execution_count": 2,
   "id": "2fb672c2-a729-4f84-8173-cf2018d60fbd",
   "metadata": {
    "collapsed": true,
    "jupyter": {
     "outputs_hidden": true
    },
    "tags": []
   },
   "outputs": [
    {
     "name": "stderr",
     "output_type": "stream",
     "text": [
      "ffmpeg version 6.0 Copyright (c) 2000-2023 the FFmpeg developers\n",
      "  built with Apple clang version 14.0.3 (clang-1403.0.22.14.1)\n",
      "  configuration: --prefix=/opt/homebrew/Cellar/ffmpeg/6.0 --enable-shared --enable-pthreads --enable-version3 --cc=clang --host-cflags= --host-ldflags= --enable-ffplay --enable-gnutls --enable-gpl --enable-libaom --enable-libaribb24 --enable-libbluray --enable-libdav1d --enable-libmp3lame --enable-libopus --enable-librav1e --enable-librist --enable-librubberband --enable-libsnappy --enable-libsrt --enable-libsvtav1 --enable-libtesseract --enable-libtheora --enable-libvidstab --enable-libvmaf --enable-libvorbis --enable-libvpx --enable-libwebp --enable-libx264 --enable-libx265 --enable-libxml2 --enable-libxvid --enable-lzma --enable-libfontconfig --enable-libfreetype --enable-frei0r --enable-libass --enable-libopencore-amrnb --enable-libopencore-amrwb --enable-libopenjpeg --enable-libspeex --enable-libsoxr --enable-libzmq --enable-libzimg --disable-libjack --disable-indev=jack --enable-videotoolbox --enable-audiotoolbox --enable-neon\n",
      "  libavutil      58.  2.100 / 58.  2.100\n",
      "  libavcodec     60.  3.100 / 60.  3.100\n",
      "  libavformat    60.  3.100 / 60.  3.100\n",
      "  libavdevice    60.  1.100 / 60.  1.100\n",
      "  libavfilter     9.  3.100 /  9.  3.100\n",
      "  libswscale      7.  1.100 /  7.  1.100\n",
      "  libswresample   4. 10.100 /  4. 10.100\n",
      "  libpostproc    57.  1.100 / 57.  1.100\n",
      "Input #0, mov,mp4,m4a,3gp,3g2,mj2, from 'videos/r5_ab.mp4':\n",
      "  Metadata:\n",
      "    major_brand     : isom\n",
      "    minor_version   : 512\n",
      "    compatible_brands: isomiso2avc1mp41\n",
      "    encoder         : Lavf59.27.100\n",
      "  Duration: 00:32:26.80, start: 0.000000, bitrate: 391 kb/s\n",
      "  Stream #0:0[0x1](und): Video: h264 (High) (avc1 / 0x31637661), yuv420p(progressive), 720x288 [SAR 16:15 DAR 8:3], 389 kb/s, 25 fps, 25 tbr, 12800 tbn (default)\n",
      "    Metadata:\n",
      "      handler_name    : VideoHandler\n",
      "      vendor_id       : [0][0][0][0]\n",
      "      encoder         : Lavc59.37.100 libx264\n",
      "Stream mapping:\n",
      "  Stream #0:0 -> #0:0 (h264 (native) -> h264 (libx264))\n",
      "Press [q] to stop, [?] for help\n",
      "[libx264 @ 0x14c606800] using SAR=16/15\n",
      "[libx264 @ 0x14c606800] using cpu capabilities: ARMv8 NEON\n",
      "[libx264 @ 0x14c606800] profile High, level 2.1, 4:2:0, 8-bit\n",
      "[libx264 @ 0x14c606800] 264 - core 164 r3095 baee400 - H.264/MPEG-4 AVC codec - Copyleft 2003-2022 - http://www.videolan.org/x264.html - options: cabac=1 ref=3 deblock=1:0:0 analyse=0x3:0x113 me=hex subme=7 psy=1 psy_rd=1.00:0.00 mixed_ref=1 me_range=16 chroma_me=1 trellis=1 8x8dct=1 cqm=0 deadzone=21,11 fast_pskip=1 chroma_qp_offset=-2 threads=9 lookahead_threads=1 sliced_threads=0 nr=0 decimate=1 interlaced=0 bluray_compat=0 constrained_intra=0 bframes=3 b_pyramid=2 b_adapt=1 b_bias=0 direct=1 weightb=1 open_gop=0 weightp=2 keyint=250 keyint_min=25 scenecut=40 intra_refresh=0 rc_lookahead=40 rc=crf mbtree=1 crf=23.0 qcomp=0.60 qpmin=0 qpmax=69 qpstep=4 ip_ratio=1.40 aq=1:1.00\n",
      "Output #0, mp4, to 'videos/output/output_r5_ab_b.mp4':\n",
      "  Metadata:\n",
      "    major_brand     : isom\n",
      "    minor_version   : 512\n",
      "    compatible_brands: isomiso2avc1mp41\n",
      "    encoder         : Lavf60.3.100\n",
      "  Stream #0:0(und): Video: h264 (avc1 / 0x31637661), yuv420p(progressive), 360x288 [SAR 16:15 DAR 4:3], q=2-31, 25 fps, 12800 tbn (default)\n",
      "    Metadata:\n",
      "      handler_name    : VideoHandler\n",
      "      vendor_id       : [0][0][0][0]\n",
      "      encoder         : Lavc60.3.100 libx264\n",
      "    Side data:\n",
      "      cpb: bitrate max/min/avg: 0/0/0 buffer size: 0 vbv_delay: N/A\n",
      "frame= 8394 fps=1909 q=-1.0 Lsize=    6574kB time=00:05:35.64 bitrate= 160.4kbits/s speed=76.3x    \n",
      "video:6477kB audio:0kB subtitle:0kB other streams:0kB global headers:0kB muxing overhead: 1.496729%\n",
      "[libx264 @ 0x14c606800] frame I:34    Avg QP:17.81  size: 16030\n",
      "[libx264 @ 0x14c606800] frame P:3005  Avg QP:20.43  size:  1708\n",
      "[libx264 @ 0x14c606800] frame B:5355  Avg QP:24.28  size:   178\n",
      "[libx264 @ 0x14c606800] consecutive B-frames:  1.7% 36.1% 11.1% 51.1%\n",
      "[libx264 @ 0x14c606800] mb I  I16..4:  2.5% 88.9%  8.6%\n",
      "[libx264 @ 0x14c606800] mb P  I16..4:  0.1%  0.6%  0.1%  P16..4: 34.8% 15.7% 11.2%  0.0%  0.0%    skip:37.4%\n",
      "[libx264 @ 0x14c606800] mb B  I16..4:  0.0%  0.0%  0.0%  B16..8: 22.4%  1.5%  0.2%  direct: 0.3%  skip:75.6%  L0:34.8% L1:62.2% BI: 3.0%\n",
      "[libx264 @ 0x14c606800] 8x8 transform intra:82.8% inter:81.2%\n",
      "[libx264 @ 0x14c606800] coded y,uvDC,uvAC intra: 79.7% 85.2% 40.7% inter: 7.6% 13.0% 0.0%\n",
      "[libx264 @ 0x14c606800] i16 v,h,dc,p: 22% 18% 22% 38%\n",
      "[libx264 @ 0x14c606800] i8 v,h,dc,ddl,ddr,vr,hd,vl,hu: 21% 14% 22%  6%  5%  7%  6% 10%  8%\n",
      "[libx264 @ 0x14c606800] i4 v,h,dc,ddl,ddr,vr,hd,vl,hu: 24% 16% 18%  7%  7%  7%  7%  8%  6%\n",
      "[libx264 @ 0x14c606800] i8c dc,h,v,p: 46% 23% 22%  9%\n",
      "[libx264 @ 0x14c606800] Weighted P-Frames: Y:0.1% UV:0.0%\n",
      "[libx264 @ 0x14c606800] ref P L0: 71.5% 10.1% 13.4%  5.0%  0.0%\n",
      "[libx264 @ 0x14c606800] ref B L0: 88.3% 10.1%  1.6%\n",
      "[libx264 @ 0x14c606800] ref B L1: 97.0%  3.0%\n",
      "[libx264 @ 0x14c606800] kb/s:158.01\n",
      "Exiting normally, received signal 2.\n",
      "ffmpeg version 6.0 Copyright (c) 2000-2023 the FFmpeg developers\n",
      "  built with Apple clang version 14.0.3 (clang-1403.0.22.14.1)\n",
      "  configuration: --prefix=/opt/homebrew/Cellar/ffmpeg/6.0 --enable-shared --enable-pthreads --enable-version3 --cc=clang --host-cflags= --host-ldflags= --enable-ffplay --enable-gnutls --enable-gpl --enable-libaom --enable-libaribb24 --enable-libbluray --enable-libdav1d --enable-libmp3lame --enable-libopus --enable-librav1e --enable-librist --enable-librubberband --enable-libsnappy --enable-libsrt --enable-libsvtav1 --enable-libtesseract --enable-libtheora --enable-libvidstab --enable-libvmaf --enable-libvorbis --enable-libvpx --enable-libwebp --enable-libx264 --enable-libx265 --enable-libxml2 --enable-libxvid --enable-lzma --enable-libfontconfig --enable-libfreetype --enable-frei0r --enable-libass --enable-libopencore-amrnb --enable-libopencore-amrwb --enable-libopenjpeg --enable-libspeex --enable-libsoxr --enable-libzmq --enable-libzimg --disable-libjack --disable-indev=jack --enable-videotoolbox --enable-audiotoolbox --enable-neon\n",
      "  libavutil      58.  2.100 / 58.  2.100\n",
      "  libavcodec     60.  3.100 / 60.  3.100\n",
      "  libavformat    60.  3.100 / 60.  3.100\n",
      "  libavdevice    60.  1.100 / 60.  1.100\n",
      "  libavfilter     9.  3.100 /  9.  3.100\n",
      "  libswscale      7.  1.100 /  7.  1.100\n",
      "  libswresample   4. 10.100 /  4. 10.100\n",
      "  libpostproc    57.  1.100 / 57.  1.100\n",
      "Input #0, mov,mp4,m4a,3gp,3g2,mj2, from 'videos/r6_ab.mp4':\n",
      "  Metadata:\n",
      "    major_brand     : isom\n",
      "    minor_version   : 512\n",
      "    compatible_brands: isomiso2avc1mp41\n",
      "    encoder         : Lavf59.27.100\n",
      "  Duration: 00:36:51.12, start: 0.000000, bitrate: 446 kb/s\n",
      "  Stream #0:0[0x1](und): Video: h264 (High) (avc1 / 0x31637661), yuv420p(progressive), 720x288 [SAR 16:15 DAR 8:3], 444 kb/s, 25 fps, 25 tbr, 12800 tbn (default)\n",
      "    Metadata:\n",
      "      handler_name    : VideoHandler\n",
      "      vendor_id       : [0][0][0][0]\n",
      "      encoder         : Lavc59.37.100 libx264\n",
      "Stream mapping:\n",
      "  Stream #0:0 -> #0:0 (h264 (native) -> h264 (libx264))\n",
      "Press [q] to stop, [?] for help\n",
      "[libx264 @ 0x123f06520] using SAR=16/15\n",
      "[libx264 @ 0x123f06520] using cpu capabilities: ARMv8 NEON\n",
      "[libx264 @ 0x123f06520] profile High, level 2.1, 4:2:0, 8-bit\n",
      "[libx264 @ 0x123f06520] 264 - core 164 r3095 baee400 - H.264/MPEG-4 AVC codec - Copyleft 2003-2022 - http://www.videolan.org/x264.html - options: cabac=1 ref=3 deblock=1:0:0 analyse=0x3:0x113 me=hex subme=7 psy=1 psy_rd=1.00:0.00 mixed_ref=1 me_range=16 chroma_me=1 trellis=1 8x8dct=1 cqm=0 deadzone=21,11 fast_pskip=1 chroma_qp_offset=-2 threads=9 lookahead_threads=1 sliced_threads=0 nr=0 decimate=1 interlaced=0 bluray_compat=0 constrained_intra=0 bframes=3 b_pyramid=2 b_adapt=1 b_bias=0 direct=1 weightb=1 open_gop=0 weightp=2 keyint=250 keyint_min=25 scenecut=40 intra_refresh=0 rc_lookahead=40 rc=crf mbtree=1 crf=23.0 qcomp=0.60 qpmin=0 qpmax=69 qpstep=4 ip_ratio=1.40 aq=1:1.00\n",
      "Output #0, mp4, to 'videos/output/output_r6_ab_b.mp4':\n",
      "  Metadata:\n",
      "    major_brand     : isom\n",
      "    minor_version   : 512\n",
      "    compatible_brands: isomiso2avc1mp41\n",
      "    encoder         : Lavf60.3.100\n",
      "  Stream #0:0(und): Video: h264 (avc1 / 0x31637661), yuv420p(progressive), 360x288 [SAR 16:15 DAR 4:3], q=2-31, 25 fps, 12800 tbn (default)\n",
      "    Metadata:\n",
      "      handler_name    : VideoHandler\n",
      "      vendor_id       : [0][0][0][0]\n",
      "      encoder         : Lavc60.3.100 libx264\n",
      "    Side data:\n",
      "      cpb: bitrate max/min/avg: 0/0/0 buffer size: 0 vbv_delay: N/A\n",
      "frame= 6357 fps=1810 q=-1.0 Lsize=    7504kB time=00:04:14.16 bitrate= 241.9kbits/s speed=72.4x    \n",
      "video:7429kB audio:0kB subtitle:0kB other streams:0kB global headers:0kB muxing overhead: 1.009714%\n",
      "[libx264 @ 0x123f06520] frame I:26    Avg QP:17.94  size: 16786\n",
      "[libx264 @ 0x123f06520] frame P:1634  Avg QP:20.75  size:  2629\n",
      "[libx264 @ 0x123f06520] frame B:4697  Avg QP:26.16  size:   612\n",
      "[libx264 @ 0x123f06520] consecutive B-frames:  0.6%  1.8%  3.1% 94.6%\n",
      "[libx264 @ 0x123f06520] mb I  I16..4:  2.0% 82.8% 15.2%\n",
      "[libx264 @ 0x123f06520] mb P  I16..4:  0.1%  0.8%  0.9%  P16..4: 35.4% 18.3% 15.7%  0.0%  0.0%    skip:28.8%\n",
      "[libx264 @ 0x123f06520] mb B  I16..4:  0.0%  0.1%  0.3%  B16..8: 21.8%  2.2%  1.3%  direct: 0.7%  skip:73.7%  L0:38.6% L1:57.4% BI: 3.9%\n",
      "[libx264 @ 0x123f06520] 8x8 transform intra:50.8% inter:73.8%\n",
      "[libx264 @ 0x123f06520] coded y,uvDC,uvAC intra: 85.8% 86.4% 44.9% inter: 8.6% 11.7% 0.1%\n",
      "[libx264 @ 0x123f06520] i16 v,h,dc,p: 30% 14% 20% 35%\n",
      "[libx264 @ 0x123f06520] i8 v,h,dc,ddl,ddr,vr,hd,vl,hu: 25% 15% 23%  5%  5%  6%  6% 10%  7%\n",
      "[libx264 @ 0x123f06520] i4 v,h,dc,ddl,ddr,vr,hd,vl,hu: 26% 18% 20%  5%  4%  5%  4% 11%  5%\n",
      "[libx264 @ 0x123f06520] i8c dc,h,v,p: 37% 20% 36%  6%\n",
      "[libx264 @ 0x123f06520] Weighted P-Frames: Y:0.0% UV:0.0%\n",
      "[libx264 @ 0x123f06520] ref P L0: 65.9% 10.7% 17.0%  6.4%\n",
      "[libx264 @ 0x123f06520] ref B L0: 82.9% 13.4%  3.8%\n",
      "[libx264 @ 0x123f06520] ref B L1: 92.9%  7.1%\n",
      "[libx264 @ 0x123f06520] kb/s:239.30\n",
      "Exiting normally, received signal 2.\n",
      "ffmpeg version 6.0 Copyright (c) 2000-2023 the FFmpeg developers\n",
      "  built with Apple clang version 14.0.3 (clang-1403.0.22.14.1)\n",
      "  configuration: --prefix=/opt/homebrew/Cellar/ffmpeg/6.0 --enable-shared --enable-pthreads --enable-version3 --cc=clang --host-cflags= --host-ldflags= --enable-ffplay --enable-gnutls --enable-gpl --enable-libaom --enable-libaribb24 --enable-libbluray --enable-libdav1d --enable-libmp3lame --enable-libopus --enable-librav1e --enable-librist --enable-librubberband --enable-libsnappy --enable-libsrt --enable-libsvtav1 --enable-libtesseract --enable-libtheora --enable-libvidstab --enable-libvmaf --enable-libvorbis --enable-libvpx --enable-libwebp --enable-libx264 --enable-libx265 --enable-libxml2 --enable-libxvid --enable-lzma --enable-libfontconfig --enable-libfreetype --enable-frei0r --enable-libass --enable-libopencore-amrnb --enable-libopencore-amrwb --enable-libopenjpeg --enable-libspeex --enable-libsoxr --enable-libzmq --enable-libzimg --disable-libjack --disable-indev=jack --enable-videotoolbox --enable-audiotoolbox --enable-neon\n",
      "  libavutil      58.  2.100 / 58.  2.100\n",
      "  libavcodec     60.  3.100 / 60.  3.100\n",
      "  libavformat    60.  3.100 / 60.  3.100\n",
      "  libavdevice    60.  1.100 / 60.  1.100\n",
      "  libavfilter     9.  3.100 /  9.  3.100\n",
      "  libswscale      7.  1.100 /  7.  1.100\n",
      "  libswresample   4. 10.100 /  4. 10.100\n",
      "  libpostproc    57.  1.100 / 57.  1.100\n",
      "Input #0, mov,mp4,m4a,3gp,3g2,mj2, from 'videos/r7_ab.mp4':\n",
      "  Metadata:\n",
      "    major_brand     : isom\n",
      "    minor_version   : 512\n",
      "    compatible_brands: isomiso2avc1mp41\n",
      "    encoder         : Lavf59.27.100\n",
      "  Duration: 00:38:14.56, start: 0.000000, bitrate: 347 kb/s\n",
      "  Stream #0:0[0x1](und): Video: h264 (High) (avc1 / 0x31637661), yuv420p(progressive), 720x288 [SAR 16:15 DAR 8:3], 345 kb/s, 25 fps, 25 tbr, 12800 tbn (default)\n",
      "    Metadata:\n",
      "      handler_name    : VideoHandler\n",
      "      vendor_id       : [0][0][0][0]\n",
      "      encoder         : Lavc59.37.100 libx264\n",
      "Stream mapping:\n",
      "  Stream #0:0 -> #0:0 (h264 (native) -> h264 (libx264))\n",
      "Press [q] to stop, [?] for help\n",
      "[libx264 @ 0x130606e60] using SAR=16/15\n",
      "[libx264 @ 0x130606e60] using cpu capabilities: ARMv8 NEON\n",
      "[libx264 @ 0x130606e60] profile High, level 2.1, 4:2:0, 8-bit\n",
      "[libx264 @ 0x130606e60] 264 - core 164 r3095 baee400 - H.264/MPEG-4 AVC codec - Copyleft 2003-2022 - http://www.videolan.org/x264.html - options: cabac=1 ref=3 deblock=1:0:0 analyse=0x3:0x113 me=hex subme=7 psy=1 psy_rd=1.00:0.00 mixed_ref=1 me_range=16 chroma_me=1 trellis=1 8x8dct=1 cqm=0 deadzone=21,11 fast_pskip=1 chroma_qp_offset=-2 threads=9 lookahead_threads=1 sliced_threads=0 nr=0 decimate=1 interlaced=0 bluray_compat=0 constrained_intra=0 bframes=3 b_pyramid=2 b_adapt=1 b_bias=0 direct=1 weightb=1 open_gop=0 weightp=2 keyint=250 keyint_min=25 scenecut=40 intra_refresh=0 rc_lookahead=40 rc=crf mbtree=1 crf=23.0 qcomp=0.60 qpmin=0 qpmax=69 qpstep=4 ip_ratio=1.40 aq=1:1.00\n",
      "Output #0, mp4, to 'videos/output/output_r7_ab_b.mp4':\n",
      "  Metadata:\n",
      "    major_brand     : isom\n",
      "    minor_version   : 512\n",
      "    compatible_brands: isomiso2avc1mp41\n",
      "    encoder         : Lavf60.3.100\n",
      "  Stream #0:0(und): Video: h264 (avc1 / 0x31637661), yuv420p(progressive), 360x288 [SAR 16:15 DAR 4:3], q=2-31, 25 fps, 12800 tbn (default)\n",
      "    Metadata:\n",
      "      handler_name    : VideoHandler\n",
      "      vendor_id       : [0][0][0][0]\n",
      "      encoder         : Lavc60.3.100 libx264\n",
      "    Side data:\n",
      "      cpb: bitrate max/min/avg: 0/0/0 buffer size: 0 vbv_delay: N/A\n",
      "frame=48242 fps=2071 q=-1.0 Lsize=   35878kB time=00:32:09.56 bitrate= 152.3kbits/s speed=82.8x    \n",
      "video:35323kB audio:0kB subtitle:0kB other streams:0kB global headers:0kB muxing overhead: 1.569568%\n",
      "[libx264 @ 0x130606e60] frame I:193   Avg QP:17.83  size: 16433\n",
      "[libx264 @ 0x130606e60] frame P:19580 Avg QP:20.46  size:  1437\n",
      "[libx264 @ 0x130606e60] frame B:28469 Avg QP:26.16  size:   171\n",
      "[libx264 @ 0x130606e60] consecutive B-frames:  2.6% 53.0%  9.8% 34.6%\n",
      "[libx264 @ 0x130606e60] mb I  I16..4:  2.8% 88.6%  8.6%\n",
      "[libx264 @ 0x130606e60] mb P  I16..4:  0.1%  0.6%  0.1%  P16..4: 31.3% 13.2% 10.1%  0.0%  0.0%    skip:44.6%\n",
      "[libx264 @ 0x130606e60] mb B  I16..4:  0.0%  0.1%  0.0%  B16..8: 19.9%  1.2%  0.3%  direct: 0.3%  skip:78.2%  L0:32.1% L1:65.0% BI: 3.0%\n",
      "[libx264 @ 0x130606e60] 8x8 transform intra:82.8% inter:80.2%\n",
      "[libx264 @ 0x130606e60] coded y,uvDC,uvAC intra: 79.1% 83.7% 44.6% inter: 7.4% 13.1% 0.1%\n",
      "[libx264 @ 0x130606e60] i16 v,h,dc,p: 24% 23% 19% 34%\n",
      "[libx264 @ 0x130606e60] i8 v,h,dc,ddl,ddr,vr,hd,vl,hu: 19% 19% 21%  5%  5%  6%  7% 10%  9%\n",
      "[libx264 @ 0x130606e60] i4 v,h,dc,ddl,ddr,vr,hd,vl,hu: 20% 24% 16%  6%  7%  6%  7%  8%  7%\n",
      "[libx264 @ 0x130606e60] i8c dc,h,v,p: 42% 25% 24%  9%\n",
      "[libx264 @ 0x130606e60] Weighted P-Frames: Y:0.0% UV:0.0%\n",
      "[libx264 @ 0x130606e60] ref P L0: 73.8%  9.2% 12.2%  4.9%\n",
      "[libx264 @ 0x130606e60] ref B L0: 88.4% 10.3%  1.3%\n",
      "[libx264 @ 0x130606e60] ref B L1: 98.0%  2.0%\n",
      "[libx264 @ 0x130606e60] kb/s:149.95\n",
      "Exiting normally, received signal 2.\n",
      "ffmpeg version 6.0 Copyright (c) 2000-2023 the FFmpeg developers\n",
      "  built with Apple clang version 14.0.3 (clang-1403.0.22.14.1)\n",
      "  configuration: --prefix=/opt/homebrew/Cellar/ffmpeg/6.0 --enable-shared --enable-pthreads --enable-version3 --cc=clang --host-cflags= --host-ldflags= --enable-ffplay --enable-gnutls --enable-gpl --enable-libaom --enable-libaribb24 --enable-libbluray --enable-libdav1d --enable-libmp3lame --enable-libopus --enable-librav1e --enable-librist --enable-librubberband --enable-libsnappy --enable-libsrt --enable-libsvtav1 --enable-libtesseract --enable-libtheora --enable-libvidstab --enable-libvmaf --enable-libvorbis --enable-libvpx --enable-libwebp --enable-libx264 --enable-libx265 --enable-libxml2 --enable-libxvid --enable-lzma --enable-libfontconfig --enable-libfreetype --enable-frei0r --enable-libass --enable-libopencore-amrnb --enable-libopencore-amrwb --enable-libopenjpeg --enable-libspeex --enable-libsoxr --enable-libzmq --enable-libzimg --disable-libjack --disable-indev=jack --enable-videotoolbox --enable-audiotoolbox --enable-neon\n",
      "  libavutil      58.  2.100 / 58.  2.100\n",
      "  libavcodec     60.  3.100 / 60.  3.100\n",
      "  libavformat    60.  3.100 / 60.  3.100\n",
      "  libavdevice    60.  1.100 / 60.  1.100\n",
      "  libavfilter     9.  3.100 /  9.  3.100\n",
      "  libswscale      7.  1.100 /  7.  1.100\n",
      "  libswresample   4. 10.100 /  4. 10.100\n",
      "  libpostproc    57.  1.100 / 57.  1.100\n",
      "Input #0, mov,mp4,m4a,3gp,3g2,mj2, from 'videos/r8_ab.mp4':\n",
      "  Metadata:\n",
      "    major_brand     : isom\n",
      "    minor_version   : 512\n",
      "    compatible_brands: isomiso2avc1mp41\n",
      "    encoder         : Lavf59.27.100\n",
      "  Duration: 00:29:40.92, start: 0.000000, bitrate: 369 kb/s\n",
      "  Stream #0:0[0x1](und): Video: h264 (High) (avc1 / 0x31637661), yuv420p(progressive), 720x288 [SAR 16:15 DAR 8:3], 366 kb/s, 25 fps, 25 tbr, 12800 tbn (default)\n",
      "    Metadata:\n",
      "      handler_name    : VideoHandler\n",
      "      vendor_id       : [0][0][0][0]\n",
      "      encoder         : Lavc59.37.100 libx264\n",
      "Stream mapping:\n",
      "  Stream #0:0 -> #0:0 (h264 (native) -> h264 (libx264))\n",
      "Press [q] to stop, [?] for help\n",
      "[libx264 @ 0x15bf06680] using SAR=16/15\n",
      "[libx264 @ 0x15bf06680] using cpu capabilities: ARMv8 NEON\n",
      "[libx264 @ 0x15bf06680] profile High, level 2.1, 4:2:0, 8-bit\n",
      "[libx264 @ 0x15bf06680] 264 - core 164 r3095 baee400 - H.264/MPEG-4 AVC codec - Copyleft 2003-2022 - http://www.videolan.org/x264.html - options: cabac=1 ref=3 deblock=1:0:0 analyse=0x3:0x113 me=hex subme=7 psy=1 psy_rd=1.00:0.00 mixed_ref=1 me_range=16 chroma_me=1 trellis=1 8x8dct=1 cqm=0 deadzone=21,11 fast_pskip=1 chroma_qp_offset=-2 threads=9 lookahead_threads=1 sliced_threads=0 nr=0 decimate=1 interlaced=0 bluray_compat=0 constrained_intra=0 bframes=3 b_pyramid=2 b_adapt=1 b_bias=0 direct=1 weightb=1 open_gop=0 weightp=2 keyint=250 keyint_min=25 scenecut=40 intra_refresh=0 rc_lookahead=40 rc=crf mbtree=1 crf=23.0 qcomp=0.60 qpmin=0 qpmax=69 qpstep=4 ip_ratio=1.40 aq=1:1.00\n",
      "Output #0, mp4, to 'videos/output/output_r8_ab_b.mp4':\n",
      "  Metadata:\n",
      "    major_brand     : isom\n",
      "    minor_version   : 512\n",
      "    compatible_brands: isomiso2avc1mp41\n",
      "    encoder         : Lavf60.3.100\n",
      "  Stream #0:0(und): Video: h264 (avc1 / 0x31637661), yuv420p(progressive), 360x288 [SAR 16:15 DAR 4:3], q=2-31, 25 fps, 12800 tbn (default)\n",
      "    Metadata:\n",
      "      handler_name    : VideoHandler\n",
      "      vendor_id       : [0][0][0][0]\n",
      "      encoder         : Lavc60.3.100 libx264\n",
      "    Side data:\n",
      "      cpb: bitrate max/min/avg: 0/0/0 buffer size: 0 vbv_delay: N/A\n",
      "frame=  677 fps=0.0 q=-1.0 Lsize=     676kB time=00:00:26.96 bitrate= 205.5kbits/s speed=66.2x     \n",
      "video:668kB audio:0kB subtitle:0kB other streams:0kB global headers:0kB muxing overhead: 1.295786%\n",
      "[libx264 @ 0x15bf06680] frame I:3     Avg QP:19.94  size: 13773\n",
      "[libx264 @ 0x15bf06680] frame P:260   Avg QP:21.50  size:  1862\n",
      "[libx264 @ 0x15bf06680] frame B:414   Avg QP:26.07  size:   381\n",
      "[libx264 @ 0x15bf06680] consecutive B-frames:  2.4% 45.5%  8.4% 43.7%\n",
      "[libx264 @ 0x15bf06680] mb I  I16..4:  2.7% 88.8%  8.5%\n",
      "[libx264 @ 0x15bf06680] mb P  I16..4:  0.3%  2.2%  0.3%  P16..4: 31.9% 17.6% 11.4%  0.0%  0.0%    skip:36.3%\n",
      "[libx264 @ 0x15bf06680] mb B  I16..4:  0.0%  0.1%  0.0%  B16..8: 23.0%  3.3%  0.7%  direct: 0.8%  skip:72.0%  L0:34.3% L1:59.8% BI: 5.9%\n",
      "[libx264 @ 0x15bf06680] 8x8 transform intra:80.6% inter:75.6%\n",
      "[libx264 @ 0x15bf06680] coded y,uvDC,uvAC intra: 72.0% 79.2% 31.3% inter: 9.6% 13.8% 0.1%\n",
      "[libx264 @ 0x15bf06680] i16 v,h,dc,p: 23% 28% 15% 34%\n",
      "[libx264 @ 0x15bf06680] i8 v,h,dc,ddl,ddr,vr,hd,vl,hu: 17% 23% 20%  5%  6%  6%  7%  8%  8%\n",
      "[libx264 @ 0x15bf06680] i4 v,h,dc,ddl,ddr,vr,hd,vl,hu: 13% 33% 19%  4%  5%  6%  6%  8%  6%\n",
      "[libx264 @ 0x15bf06680] i8c dc,h,v,p: 45% 26% 21%  8%\n",
      "[libx264 @ 0x15bf06680] Weighted P-Frames: Y:0.0% UV:0.0%\n",
      "[libx264 @ 0x15bf06680] ref P L0: 71.6% 12.2% 11.6%  4.6%\n",
      "[libx264 @ 0x15bf06680] ref B L0: 87.5% 10.8%  1.7%\n",
      "[libx264 @ 0x15bf06680] ref B L1: 97.4%  2.6%\n",
      "[libx264 @ 0x15bf06680] kb/s:201.79\n",
      "Exiting normally, received signal 2.\n",
      "ffmpeg version 6.0 Copyright (c) 2000-2023 the FFmpeg developers\n",
      "  built with Apple clang version 14.0.3 (clang-1403.0.22.14.1)\n",
      "  configuration: --prefix=/opt/homebrew/Cellar/ffmpeg/6.0 --enable-shared --enable-pthreads --enable-version3 --cc=clang --host-cflags= --host-ldflags= --enable-ffplay --enable-gnutls --enable-gpl --enable-libaom --enable-libaribb24 --enable-libbluray --enable-libdav1d --enable-libmp3lame --enable-libopus --enable-librav1e --enable-librist --enable-librubberband --enable-libsnappy --enable-libsrt --enable-libsvtav1 --enable-libtesseract --enable-libtheora --enable-libvidstab --enable-libvmaf --enable-libvorbis --enable-libvpx --enable-libwebp --enable-libx264 --enable-libx265 --enable-libxml2 --enable-libxvid --enable-lzma --enable-libfontconfig --enable-libfreetype --enable-frei0r --enable-libass --enable-libopencore-amrnb --enable-libopencore-amrwb --enable-libopenjpeg --enable-libspeex --enable-libsoxr --enable-libzmq --enable-libzimg --disable-libjack --disable-indev=jack --enable-videotoolbox --enable-audiotoolbox --enable-neon\n",
      "  libavutil      58.  2.100 / 58.  2.100\n",
      "  libavcodec     60.  3.100 / 60.  3.100\n",
      "  libavformat    60.  3.100 / 60.  3.100\n",
      "  libavdevice    60.  1.100 / 60.  1.100\n",
      "  libavfilter     9.  3.100 /  9.  3.100\n",
      "  libswscale      7.  1.100 /  7.  1.100\n",
      "  libswresample   4. 10.100 /  4. 10.100\n",
      "  libpostproc    57.  1.100 / 57.  1.100\n",
      "Input #0, mov,mp4,m4a,3gp,3g2,mj2, from 'videos/r9_ab.mp4':\n",
      "  Metadata:\n",
      "    major_brand     : isom\n",
      "    minor_version   : 512\n",
      "    compatible_brands: isomiso2avc1mp41\n",
      "    encoder         : Lavf59.27.100\n",
      "  Duration: 00:32:49.96, start: 0.000000, bitrate: 279 kb/s\n",
      "  Stream #0:0[0x1](und): Video: h264 (High) (avc1 / 0x31637661), yuv420p(progressive), 720x288 [SAR 16:15 DAR 8:3], 277 kb/s, 25 fps, 25 tbr, 12800 tbn (default)\n",
      "    Metadata:\n",
      "      handler_name    : VideoHandler\n",
      "      vendor_id       : [0][0][0][0]\n",
      "      encoder         : Lavc59.37.100 libx264\n",
      "Stream mapping:\n",
      "  Stream #0:0 -> #0:0 (h264 (native) -> h264 (libx264))\n",
      "Press [q] to stop, [?] for help\n",
      "[libx264 @ 0x135f06860] using SAR=16/15\n",
      "[libx264 @ 0x135f06860] using cpu capabilities: ARMv8 NEON\n",
      "[libx264 @ 0x135f06860] profile High, level 2.1, 4:2:0, 8-bit\n",
      "[libx264 @ 0x135f06860] 264 - core 164 r3095 baee400 - H.264/MPEG-4 AVC codec - Copyleft 2003-2022 - http://www.videolan.org/x264.html - options: cabac=1 ref=3 deblock=1:0:0 analyse=0x3:0x113 me=hex subme=7 psy=1 psy_rd=1.00:0.00 mixed_ref=1 me_range=16 chroma_me=1 trellis=1 8x8dct=1 cqm=0 deadzone=21,11 fast_pskip=1 chroma_qp_offset=-2 threads=9 lookahead_threads=1 sliced_threads=0 nr=0 decimate=1 interlaced=0 bluray_compat=0 constrained_intra=0 bframes=3 b_pyramid=2 b_adapt=1 b_bias=0 direct=1 weightb=1 open_gop=0 weightp=2 keyint=250 keyint_min=25 scenecut=40 intra_refresh=0 rc_lookahead=40 rc=crf mbtree=1 crf=23.0 qcomp=0.60 qpmin=0 qpmax=69 qpstep=4 ip_ratio=1.40 aq=1:1.00\n",
      "Output #0, mp4, to 'videos/output/output_r9_ab_b.mp4':\n",
      "  Metadata:\n",
      "    major_brand     : isom\n",
      "    minor_version   : 512\n",
      "    compatible_brands: isomiso2avc1mp41\n",
      "    encoder         : Lavf60.3.100\n",
      "  Stream #0:0(und): Video: h264 (avc1 / 0x31637661), yuv420p(progressive), 360x288 [SAR 16:15 DAR 4:3], q=2-31, 25 fps, 12800 tbn (default)\n",
      "    Metadata:\n",
      "      handler_name    : VideoHandler\n",
      "      vendor_id       : [0][0][0][0]\n",
      "      encoder         : Lavc60.3.100 libx264\n",
      "    Side data:\n",
      "      cpb: bitrate max/min/avg: 0/0/0 buffer size: 0 vbv_delay: N/A\n",
      "frame=  337 fps=0.0 q=-1.0 Lsize=     352kB time=00:00:13.36 bitrate= 216.0kbits/s speed=63.9x     \n",
      "video:348kB audio:0kB subtitle:0kB other streams:0kB global headers:0kB muxing overhead: 1.366737%\n",
      "[libx264 @ 0x135f06860] frame I:2     Avg QP:19.56  size: 12594\n",
      "[libx264 @ 0x135f06860] frame P:119   Avg QP:21.71  size:  2016\n",
      "[libx264 @ 0x135f06860] frame B:216   Avg QP:26.92  size:   417\n",
      "[libx264 @ 0x135f06860] consecutive B-frames:  3.9% 30.3%  5.3% 60.5%\n",
      "[libx264 @ 0x135f06860] mb I  I16..4:  6.5% 80.1% 13.4%\n",
      "[libx264 @ 0x135f06860] mb P  I16..4:  0.9%  4.3%  0.5%  P16..4: 30.5% 17.3% 11.4%  0.0%  0.0%    skip:35.0%\n",
      "[libx264 @ 0x135f06860] mb B  I16..4:  0.1%  0.3%  0.0%  B16..8: 21.8%  4.2%  1.0%  direct: 0.9%  skip:71.7%  L0:35.1% L1:56.9% BI: 8.0%\n",
      "[libx264 @ 0x135f06860] 8x8 transform intra:75.8% inter:78.6%\n",
      "[libx264 @ 0x135f06860] coded y,uvDC,uvAC intra: 68.0% 80.9% 30.1% inter: 9.7% 14.8% 0.3%\n",
      "[libx264 @ 0x135f06860] i16 v,h,dc,p: 45% 14% 14% 27%\n",
      "[libx264 @ 0x135f06860] i8 v,h,dc,ddl,ddr,vr,hd,vl,hu: 23% 16% 20%  6%  5%  5%  7% 12%  7%\n",
      "[libx264 @ 0x135f06860] i4 v,h,dc,ddl,ddr,vr,hd,vl,hu: 30% 16% 14%  5%  7%  7%  8%  8%  5%\n",
      "[libx264 @ 0x135f06860] i8c dc,h,v,p: 45% 16% 30%  9%\n",
      "[libx264 @ 0x135f06860] Weighted P-Frames: Y:0.0% UV:0.0%\n",
      "[libx264 @ 0x135f06860] ref P L0: 69.2% 14.8% 11.9%  4.2%\n",
      "[libx264 @ 0x135f06860] ref B L0: 92.2%  6.5%  1.3%\n",
      "[libx264 @ 0x135f06860] ref B L1: 97.7%  2.3%\n",
      "[libx264 @ 0x135f06860] kb/s:210.80\n",
      "Exiting normally, received signal 2.\n"
     ]
    }
   ],
   "source": [
    "utils.crop_out_participants(\"videos\", 'b')"
   ]
  }
 ],
 "metadata": {
  "kernelspec": {
   "display_name": "Python 3 (ipykernel)",
   "language": "python",
   "name": "python3"
  },
  "language_info": {
   "codemirror_mode": {
    "name": "ipython",
    "version": 3
   },
   "file_extension": ".py",
   "mimetype": "text/x-python",
   "name": "python",
   "nbconvert_exporter": "python",
   "pygments_lexer": "ipython3",
   "version": "3.9.10"
  }
 },
 "nbformat": 4,
 "nbformat_minor": 5
}
